<svg width="376" height="125" viewBox="0 0 376 125" fill="none" xmlns="http://www.w3.org/2000/svg">
<path d="M133.153 44.009H90V102.606H133.569V93.3982H100.227V77.6606H129.412V68.4525H100.227V53.2172H133.153V44.009Z" fill="black"/>
<path d="M181.04 65.2715C179.876 62.9276 178.185 61.0581 175.968 59.6629C173.806 58.2119 171.145 57.4864 167.986 57.4864C166.323 57.4864 164.798 57.7097 163.413 58.1561C162.082 58.5468 160.863 59.1048 159.754 59.8303C158.701 60.5558 157.759 61.365 156.927 62.2579C156.096 63.1508 155.32 64.0995 154.599 65.1041V58.4072H144.538V102.606H154.599V77.7443C154.599 74.2843 155.458 71.5777 157.177 69.6244C158.895 67.6712 161.168 66.6946 163.995 66.6946C166.822 66.6946 169.011 67.6154 170.563 69.457C172.115 71.2986 172.891 73.9495 172.891 77.4095V102.606H182.952V77.6606C182.952 74.089 183.811 71.3824 185.53 69.5407C187.304 67.6433 189.576 66.6946 192.348 66.6946C195.175 66.6946 197.364 67.6154 198.916 69.457C200.469 71.2986 201.245 73.9774 201.245 77.4932V102.606H211.305V74.3959C211.305 68.9827 209.947 64.825 207.231 61.9231C204.515 58.9653 200.746 57.4864 195.923 57.4864C192.597 57.4864 189.715 58.2119 187.276 59.6629C184.892 61.0581 182.814 62.9276 181.04 65.2715Z" fill="black"/>
<path d="M268.943 80.5068C268.943 76.8235 268.361 73.5588 267.197 70.7127C266.033 67.8665 264.48 65.4668 262.54 63.5136C260.656 61.5045 258.494 59.9977 256.055 58.9932C253.616 57.9887 251.094 57.4864 248.488 57.4864C244.941 57.4864 241.975 58.2956 239.592 59.914C237.208 61.4766 235.213 63.4299 233.605 65.7738V58.4072H223.544V116H233.605V95.7421C235.157 97.8069 237.125 99.6207 239.509 101.183C241.892 102.746 244.885 103.527 248.488 103.527C251.094 103.527 253.616 103.025 256.055 102.02C258.549 101.016 260.739 99.537 262.623 97.5837C264.564 95.5747 266.088 93.1471 267.197 90.3009C268.361 87.4548 268.943 84.19 268.943 80.5068ZM258.716 80.5068C258.716 82.6833 258.383 84.6644 257.718 86.4502C257.053 88.1802 256.138 89.6591 254.974 90.8869C253.865 92.1146 252.535 93.0634 250.983 93.733C249.486 94.4027 247.879 94.7376 246.16 94.7376C244.442 94.7376 242.807 94.4027 241.255 93.733C239.703 93.0634 238.344 92.1146 237.18 90.8869C236.016 89.6033 235.074 88.0965 234.353 86.3665C233.688 84.6365 233.356 82.6833 233.356 80.5068C233.356 78.3303 233.688 76.3771 234.353 74.6471C235.074 72.917 236.016 71.4382 237.18 70.2104C238.344 68.9268 239.703 67.9502 241.255 67.2805C242.807 66.6109 244.442 66.276 246.16 66.276C247.879 66.276 249.486 66.6109 250.983 67.2805C252.535 67.9502 253.865 68.8989 254.974 70.1267C256.138 71.3544 257.053 72.8612 257.718 74.6471C258.383 76.3771 258.716 78.3303 258.716 80.5068Z" fill="black"/>
<path d="M290.222 51.6267V42H279.413V51.6267H290.222ZM289.889 102.606V58.4072H279.828V102.606H289.889Z" fill="black"/>
<path d="M313.098 85.7805C313.098 82.8786 313.459 80.3394 314.179 78.1629C314.9 75.9306 315.925 74.089 317.256 72.638C318.586 71.187 320.166 70.0988 321.995 69.3733C323.824 68.6478 325.848 68.2851 328.065 68.2851H328.647V57.5701C324.767 57.4027 321.552 58.3235 319.002 60.3326C316.452 62.3416 314.484 65.0204 313.098 68.3688V58.4072H303.038V102.606H313.098V85.7805Z" fill="black"/>
<path d="M343.573 84.1063H375.834C375.889 83.6041 375.917 83.1297 375.917 82.6833C375.972 82.2368 376 81.7903 376 81.3439C376 78.1629 375.557 75.1214 374.67 72.2195C373.783 69.3175 372.452 66.7783 370.679 64.6018C368.96 62.4253 366.771 60.6953 364.11 59.4118C361.505 58.1282 358.456 57.4864 354.964 57.4864C351.804 57.4864 348.922 58.1003 346.316 59.3281C343.711 60.5558 341.438 62.23 339.498 64.3507C337.614 66.4155 336.145 68.8431 335.092 71.6335C334.038 74.4238 333.512 77.4095 333.512 80.5905C333.512 84.0505 334.094 87.2036 335.258 90.0498C336.422 92.8401 338.002 95.2398 339.997 97.2489C342.048 99.2579 344.432 100.821 347.148 101.937C349.919 103.053 352.885 103.611 356.045 103.611C360.091 103.611 363.556 102.857 366.438 101.351C369.376 99.8439 371.898 97.8348 374.004 95.3235L368.101 90.0498C366.327 91.7798 364.526 93.0913 362.696 93.9842C360.867 94.8771 358.705 95.3235 356.211 95.3235C352.94 95.3235 350.169 94.3748 347.896 92.4774C345.624 90.5241 344.182 87.7338 343.573 84.1063ZM343.489 77.4095C343.933 73.9495 345.152 71.1591 347.148 69.0385C349.199 66.862 351.776 65.7738 354.881 65.7738C356.544 65.7738 358.012 66.0807 359.287 66.6946C360.618 67.3084 361.754 68.1456 362.696 69.2059C363.639 70.2104 364.387 71.4382 364.941 72.8891C365.496 74.2843 365.856 75.7911 366.022 77.4095H343.489Z" fill="black"/>
<path d="M2.5 44.5H67.5V101.506L35.6234 122.042L2.5 101.478V44.5Z" stroke="black" stroke-width="5"/>
<path d="M56 21.4444H58V19.4444V16.7396L68 5.31981V33H2V4.91002L13.6154 16.8023V19.4444V21.4444H15.6154H28.5385H30.5385V19.4444V13.7633L35.6809 8.36697L42.1538 13.886V19.4444V21.4444H44.1538H56Z" stroke="#FFB040" stroke-width="4"/>
<path fill-rule="evenodd" clip-rule="evenodd" d="M47.8153 53.9596H56.7382V64.4559H47.8153V53.9596ZM47.8153 77.0063V82.2194C47.8153 86.754 46.6787 90.1667 44.4057 92.4574C42.1326 94.7481 39.0132 95.8934 35.0475 95.8934C31.0334 95.8934 27.8898 94.7013 25.6167 92.3172C23.3437 89.9329 22.2071 86.4501 22.2071 81.8687V53.9596H13.2842V82.2194C13.2842 85.7723 13.792 88.9045 14.8076 91.6159C15.8232 94.2806 17.2741 96.5246 19.1603 98.3478C21.0464 100.171 23.3195 101.55 25.9794 102.485C28.6394 103.373 31.6137 103.817 34.9024 103.817C38.2394 103.817 41.2379 103.373 43.8979 102.485C46.6062 101.55 48.9034 100.171 50.7896 98.3478C52.6757 96.4778 54.1266 94.1637 55.1423 91.4055C56.2062 88.6474 56.7382 85.445 56.7382 81.7986V77.0063H47.8153Z" fill="black"/>
</svg>
