<svg width="40" height="104" viewBox="0 0 40 104" fill="none" xmlns="http://www.w3.org/2000/svg">
<rect x="2" y="2" width="35.4937" height="55.2405" rx="17.7468" stroke="white" stroke-width="4"/>
<rect x="16.7471" y="13" width="6.58228" height="14.481" rx="3.29114" fill="white"/>
<path d="M5.9321 71.7431C6.35897 71.324 6.93786 71.0886 7.54146 71.0886C8.14506 71.0886 8.72395 71.324 9.15082 71.7431L20.4186 82.8073L31.6864 71.7431C32.1157 71.3359 32.6907 71.1106 33.2876 71.1157C33.8844 71.1208 34.4553 71.3559 34.8774 71.7703C35.2994 72.1847 35.5388 72.7453 35.544 73.3314C35.5492 73.9174 35.3198 74.4821 34.9051 74.9036L22.028 87.5481C21.6011 87.9671 21.0222 88.2025 20.4186 88.2025C19.815 88.2025 19.2361 87.9671 18.8092 87.5481L5.9321 74.9036C5.50536 74.4845 5.26562 73.916 5.26562 73.3233C5.26562 72.7306 5.50536 72.1622 5.9321 71.7431V71.7431Z" fill="white"/>
<path d="M5.9321 87.5404C6.35897 87.1214 6.93786 86.886 7.54146 86.886C8.14506 86.886 8.72395 87.1214 9.15082 87.5404L20.4186 98.6046L31.6864 87.5404C32.1157 87.1333 32.6907 86.908 33.2876 86.9131C33.8844 86.9182 34.4553 87.1532 34.8774 87.5676C35.2994 87.9821 35.5388 88.5427 35.544 89.1287C35.5492 89.7148 35.3198 90.2794 34.9051 90.701L22.028 103.345C21.6011 103.765 21.0222 104 20.4186 104C19.815 104 19.2361 103.765 18.8092 103.345L5.9321 90.701C5.50536 90.2818 5.26562 89.7134 5.26562 89.1207C5.26562 88.528 5.50536 87.9596 5.9321 87.5404V87.5404Z" fill="white"/>
</svg>
