<svg width="629" height="411" viewBox="0 0 629 411" fill="none" xmlns="http://www.w3.org/2000/svg">
<g filter="url(#filter0_d_1768_456)">
<path d="M213.943 320.993C171.615 434.436 12.1632 276.693 208.159 177.447C214.994 185.334 242.862 202.686 257.848 209.127C214.337 239.755 223.213 296.148 213.943 320.993Z" fill="#F60D2B"/>
<path d="M172.874 275.247C184.968 240.807 199.559 207.812 229.399 192.695L212.442 180.733C189.622 192.932 166.302 253.032 172.874 275.247Z" fill="white"/>
<path d="M162.151 123.552C262.975 303.378 538.236 234.366 592 139.72C404.944 247.117 222.751 175.212 162.151 123.552Z" fill="#F60D2B"/>
<path d="M112.429 189.309C16.7508 210.736 -4.2722 112.16 55.2914 124.759C83.3218 130.689 64.7249 173.946 112.429 189.309Z" fill="#F60D2B"/>
<path d="M112.429 220.912C58.3636 204.213 57.0187 253.848 84.4932 252.484C108.577 251.287 93.5225 232.226 112.429 220.912Z" fill="#F60D2B"/>
<path d="M88.1692 225.736C72.6718 224.928 75.5257 237.661 81.8765 235.61C85.8783 234.092 84.4607 229.615 88.1692 225.736Z" fill="white"/>
<path d="M306.774 29.0839V10.7459C302.698 9.43601 298.041 8.56276 291.055 8.56276C275.482 8.56276 266.895 16.4219 266.895 33.5957V38.5441H257.726V56.7366H266.895V115.826H289.018V56.7366H306.628V38.6896H288.727V35.6333C288.727 29.8116 291.637 27.1919 296.731 27.1919C300.515 27.1919 303.572 27.9196 306.774 29.0839Z" fill="#F60D2B"/>
<path d="M397.892 76.9667V76.6756C397.892 54.2624 379.99 36.361 355.831 36.361C331.526 36.361 313.479 54.5535 313.479 76.9667V77.2578C313.479 99.671 331.38 117.572 355.54 117.572C379.845 117.572 397.892 99.3799 397.892 76.9667ZM376.061 77.2578C376.061 88.7555 368.493 98.5067 355.831 98.5067C343.605 98.5067 335.31 88.4644 335.31 76.9667V76.6756C335.31 65.1779 342.878 55.4267 355.54 55.4267C367.765 55.4267 376.061 65.469 376.061 76.9667V77.2578Z" fill="#F60D2B"/>
<path d="M494.54 76.9667V76.6756C494.54 54.2624 476.638 36.361 452.479 36.361C428.173 36.361 410.126 54.5535 410.126 76.9667V77.2578C410.126 99.671 428.028 117.572 452.188 117.572C476.493 117.572 494.54 99.3799 494.54 76.9667ZM472.709 77.2578C472.709 88.7555 465.141 98.5067 452.479 98.5067C440.253 98.5067 431.957 88.4644 431.957 76.9667V76.6756C431.957 65.1779 439.526 55.4267 452.188 55.4267C464.413 55.4267 472.709 65.469 472.709 76.9667V77.2578Z" fill="#F60D2B"/>
<path d="M589.004 115.826V9.58155H566.882V48.0042C561.643 41.7459 554.366 36.361 542.577 36.361C524.094 36.361 507.065 50.6239 507.065 76.6756V76.9667C507.065 103.018 524.385 117.281 542.577 117.281C554.075 117.281 561.497 111.896 566.882 104.619V115.826H589.004ZM567.173 76.9667C567.173 89.9198 558.587 98.5067 548.253 98.5067C537.92 98.5067 529.187 89.9198 529.187 76.9667V76.6756C529.187 63.577 537.92 55.1356 548.253 55.1356C558.587 55.1356 567.173 63.7225 567.173 76.6756V76.9667Z" fill="#F60D2B"/>
<path fill-rule="evenodd" clip-rule="evenodd" d="M244.592 60.9324V69.9238C244.592 100.834 227.241 115.998 199.829 115.998C172.418 115.998 155.65 100.689 155.65 70.6528V12.3306H178.104V70.0696C178.104 86.6914 186.415 95.2939 200.121 95.2939C213.827 95.2939 222.138 86.983 222.138 70.7986V60.9324H244.592ZM244.592 32.8514V12.3306H222.138V32.8514H244.592Z" fill="#F60D2B"/>
</g>
<defs>
<filter id="filter0_d_1768_456" x="0.967041" y="0.562761" width="628.033" height="409.826" filterUnits="userSpaceOnUse" color-interpolation-filters="sRGB">
<feFlood flood-opacity="0" result="BackgroundImageFix"/>
<feColorMatrix in="SourceAlpha" type="matrix" values="0 0 0 0 0 0 0 0 0 0 0 0 0 0 0 0 0 0 127 0" result="hardAlpha"/>
<feOffset dx="8" dy="21"/>
<feGaussianBlur stdDeviation="14.5"/>
<feComposite in2="hardAlpha" operator="out"/>
<feColorMatrix type="matrix" values="0 0 0 0 0 0 0 0 0 0 0 0 0 0 0 0 0 0 0.25 0"/>
<feBlend mode="normal" in2="BackgroundImageFix" result="effect1_dropShadow_1768_456"/>
<feBlend mode="normal" in="SourceGraphic" in2="effect1_dropShadow_1768_456" result="shape"/>
</filter>
</defs>
</svg>
