<svg width="147" height="178" viewBox="0 0 147 178" fill="none" xmlns="http://www.w3.org/2000/svg">
<path d="M67.7656 149.227C82.3356 134.757 95.5156 120.867 109.626 107.987C116.456 101.757 119.076 96.4866 113.806 88.0666C110.666 83.0566 108.826 77.2066 106.706 71.6166C103.876 64.1666 106.056 58.2166 112.396 55.1966C119.896 51.6166 126.506 53.9666 129.896 61.7266C135.216 73.9066 140.366 86.1566 145.496 98.4166C147.736 103.777 147.226 108.777 143.076 113.187C132.926 123.977 122.806 134.797 112.696 145.617C110.536 147.927 107.936 149.217 104.776 149.217C92.9656 149.247 81.1656 149.227 67.7656 149.227Z" fill="white"/>
<path d="M80.8057 177.786C72.3057 177.786 63.8157 177.846 55.3257 177.766C47.5657 177.686 43.5657 173.396 43.6457 165.456C43.7157 157.606 47.8457 153.226 55.4457 153.196C72.4357 153.136 89.4257 153.136 106.416 153.196C114.266 153.226 118.036 157.356 118.006 165.556C117.976 173.696 114.206 177.696 106.296 177.766C97.7957 177.836 89.3057 177.786 80.8057 177.786Z" fill="white"/>
<path d="M108.555 92.5465C111.355 95.9965 110.945 97.7265 108.885 99.7565C95.0354 113.457 81.3754 127.357 67.5054 141.037C61.4754 146.987 53.1154 146.867 46.9654 140.787C32.8754 126.857 18.8854 112.807 4.95538 98.7065C-1.42462 92.2465 -1.32462 84.0065 5.18538 77.4365C21.7054 60.7565 38.3254 44.1765 54.9154 27.5565C62.0954 20.3665 69.2754 13.1865 76.4854 6.02654C83.2954 -0.743456 91.3254 -0.843457 98.0354 5.83654C111.955 19.7065 125.865 33.5965 139.725 47.5265C146.285 54.1165 146.115 62.8765 139.385 68.3665C138.005 66.7465 137.475 65.1965 138.645 63.0665C141.375 58.1065 139.935 53.7565 136.145 49.9665C122.375 36.1865 108.625 22.3865 94.7854 8.66654C89.9754 3.89654 84.6654 4.15654 79.4754 9.33654C62.0154 26.7365 44.6054 44.1965 27.1754 61.6365C20.9354 67.8765 14.6454 74.0765 8.47538 80.3965C3.22538 85.7765 3.21538 90.6965 8.54538 96.0765C22.2654 109.917 36.0454 123.697 49.8754 137.427C54.7754 142.297 60.1454 142.147 65.1854 137.137C78.7654 123.627 92.3054 110.077 105.805 96.4965C106.845 95.4565 107.535 94.0465 108.555 92.5465Z" fill="white"/>
<path d="M46.3857 106.956C46.9157 91.1865 56.9957 83.6765 69.8957 86.9665C75.3357 88.3565 80.0657 90.8865 84.0957 94.8665C86.6457 97.3765 86.8357 99.5665 84.2957 102.086C76.8657 109.476 69.4457 116.886 62.0657 124.336C59.7457 126.686 57.5957 126.866 55.2257 124.436C49.7957 118.876 46.4957 112.406 46.3857 106.956Z" fill="#FCB816"/>
<path d="M51.7557 79.9864C51.7457 87.6464 46.8857 92.6164 39.5057 92.5264C32.6057 92.4364 26.7157 86.4964 26.8057 79.7164C26.8957 72.8164 32.7357 67.1964 39.7857 67.2464C47.1957 67.2864 51.7657 72.1664 51.7557 79.9864Z" fill="#FCB816"/>
<path d="M75.4457 67.2962C73.5657 67.3862 72.3357 66.4762 71.4457 64.8762C70.2657 62.7462 71.0257 60.9362 72.4757 59.4362C76.2757 55.4862 80.1857 51.6362 84.0557 47.7562C88.8657 42.9362 93.7057 38.1362 98.4957 33.2962C100.766 30.9962 103.436 29.9162 105.866 32.4362C108.066 34.7062 107.136 37.3562 105.006 39.4962C96.4357 48.0762 87.8557 56.6562 79.2857 65.2362C78.2057 66.2962 77.0857 67.2862 75.4457 67.2962Z" fill="white"/>
<path d="M117.306 45.2262C117.146 46.9862 115.986 47.7862 114.446 48.2362C106.496 50.5662 101.916 55.4562 99.3757 63.7262C97.6457 69.3662 91.8357 73.1662 86.8457 76.7362C84.9457 78.0962 82.8757 76.9662 81.6157 75.2762C80.1257 73.2762 80.5957 71.1962 82.3257 69.4462C86.5257 65.1962 90.7357 60.9662 94.9557 56.7362C99.6457 52.0362 104.356 47.3562 109.036 42.6562C110.786 40.8962 112.846 40.7162 114.986 41.6162C116.516 42.2362 117.036 43.6862 117.306 45.2262Z" fill="white"/>
<path d="M65.4754 57.3163C63.6154 57.0963 62.3854 56.3663 61.5954 54.9563C60.6754 53.3263 60.7154 51.6863 62.0254 50.3563C68.4354 43.8663 74.8354 37.3663 81.4054 31.0463C83.1054 29.4163 85.4554 29.5363 87.2854 31.2163C89.0254 32.8163 89.1454 34.9863 87.6154 36.5763C81.1754 43.2463 74.5754 49.7663 67.9654 56.2663C67.3054 56.9163 66.1654 57.0463 65.4754 57.3163Z" fill="white"/>
<path d="M99.4357 71.5464C104.776 79.1464 104.256 82.3364 97.8157 86.2564C95.7657 87.5064 93.7657 87.7664 92.0057 85.8464C90.3257 84.0064 90.2557 81.8564 91.7857 79.9964C94.1757 77.1164 96.8057 74.4364 99.4357 71.5464Z" fill="white"/>
</svg>
