<svg width="120" height="120" viewBox="0 0 120 120" fill="none" xmlns="http://www.w3.org/2000/svg">
<circle cx="60" cy="60" r="60" fill="#252036"/>
<path d="M43.2284 80.9942C36.7839 98.2661 12.5071 74.2495 42.3477 59.1392C43.3884 60.34 47.6313 62.9818 49.9129 63.9625C43.2884 68.6257 44.6397 77.2116 43.2284 80.9942Z" fill="white"/>
<path d="M36.9759 74.0294C38.8172 68.7858 41.0388 63.7624 45.5819 61.4608L43.0001 59.6395C39.5258 61.4968 35.9753 70.6471 36.9759 74.0294Z" fill="#252036"/>
<path d="M35.3428 50.9335C50.6933 78.3124 92.6021 67.8051 100.788 53.3952C72.3082 69.7465 44.5691 58.7989 35.3428 50.9335Z" fill="white"/>
<path d="M27.773 60.9452C13.2058 64.2075 10.005 49.1991 19.0737 51.1174C23.3413 52.0202 20.5099 58.6062 27.773 60.9452Z" fill="white"/>
<path d="M27.7727 65.7567C19.5413 63.2144 19.3365 70.7714 23.5195 70.5637C27.1864 70.3815 24.8943 67.4794 27.7727 65.7567Z" fill="white"/>
<path d="M24.0794 66.4913C21.7199 66.3682 22.1544 68.3068 23.1213 67.9945C23.7306 67.7634 23.5147 67.0818 24.0794 66.4913Z" fill="#252036"/>
<path fill-rule="evenodd" clip-rule="evenodd" d="M47.894 41.3997V42.7686C47.894 47.4748 45.2523 49.7835 41.0789 49.7835C36.9054 49.7835 34.3525 47.4526 34.3525 42.8796V34H37.7712V42.7908C37.7712 45.3215 39.0365 46.6313 41.1232 46.6313C43.21 46.6313 44.4753 45.3659 44.4753 42.9018V41.3997H47.894ZM47.894 37.1244V34H44.4753V37.1244H47.894Z" fill="white"/>
<path d="M57.7149 48.4711V38.1916H55.6125V41.9091C55.1145 41.3036 54.423 40.7826 53.3026 40.7826C51.546 40.7826 49.9277 42.1626 49.9277 44.6832V44.7113C49.9277 47.2319 51.5737 48.6119 53.3026 48.6119C54.3953 48.6119 55.1007 48.0909 55.6125 47.3868V48.4711H57.7149ZM55.6401 44.7113C55.6401 45.9646 54.8241 46.7954 53.842 46.7954C52.86 46.7954 52.0301 45.9646 52.0301 44.7113V44.6832C52.0301 43.4158 52.86 42.5991 53.842 42.5991C54.8241 42.5991 55.6401 43.4299 55.6401 44.6832V44.7113Z" fill="white"/>
<path d="M66.509 44.9085V44.8803C66.509 42.7399 65.3748 40.7826 62.899 40.7826C60.7413 40.7826 59.2336 42.5569 59.2336 44.7113V44.7395C59.2336 47.0489 60.8796 48.6401 63.1064 48.6401C64.4481 48.6401 65.444 48.105 66.1355 47.2319L64.9322 46.1476C64.3513 46.6968 63.8395 46.9221 63.1341 46.9221C62.1936 46.9221 61.5296 46.4152 61.3222 45.4436H66.4813C66.4952 45.2464 66.509 45.1197 66.509 44.9085ZM64.4619 44.1058H61.2945C61.4605 43.1342 62.0276 42.5005 62.899 42.5005C63.7842 42.5005 64.3374 43.1483 64.4619 44.1058Z" fill="white"/>
<path d="M70.275 48.4711V38.1916H68.1727V48.4711H70.275Z" fill="white"/>
<path d="M74.5041 40.0926V38.1916H72.2911V40.0926H74.5041ZM74.4488 48.4711V40.9234H72.3464V48.4711H74.4488Z" fill="white"/>
<path d="M83.5051 40.9234H81.3197L79.6461 45.9787L77.9863 40.9234H75.7594L78.6779 48.5274H80.5866L83.5051 40.9234Z" fill="white"/>
<path d="M91.2139 44.9085V44.8803C91.2139 42.7399 90.0797 40.7826 87.6038 40.7826C85.4461 40.7826 83.9385 42.5569 83.9385 44.7113V44.7395C83.9385 47.0489 85.5844 48.6401 87.8113 48.6401C89.153 48.6401 90.1488 48.105 90.8404 47.2319L89.6371 46.1476C89.0561 46.6968 88.5444 46.9221 87.839 46.9221C86.8984 46.9221 86.2345 46.4152 86.027 45.4436H91.1862C91.2 45.2464 91.2139 45.1197 91.2139 44.9085ZM89.1668 44.1058H85.9994C86.1654 43.1342 86.7325 42.5005 87.6038 42.5005C88.4891 42.5005 89.0423 43.1483 89.1668 44.1058Z" fill="white"/>
<path d="M97.2483 43.0216V40.7826C96.0034 40.7263 95.3119 41.4022 94.8831 42.4442V40.9234H92.7807V48.4711H94.8831V45.683C94.8831 43.8805 95.7406 43.0216 97.1376 43.0216H97.2483Z" fill="white"/>
<path d="M105.616 40.9234H103.431L101.812 46.0632L100.125 40.9234H97.8979L100.803 48.4992C100.623 48.8794 100.429 48.9921 100.069 48.9921C99.7928 48.9921 99.447 48.8654 99.1704 48.6964L98.465 50.2453C99.0044 50.5692 99.5715 50.7664 100.332 50.7664C101.591 50.7664 102.2 50.189 102.767 48.6541L105.616 40.9234Z" fill="white"/>
</svg>
