<svg width="188" height="109" viewBox="0 0 188 109" fill="none" xmlns="http://www.w3.org/2000/svg">
<path d="M59.8436 96.2172C46.649 131.58 -3.05594 82.4081 58.0405 51.4706C60.1712 53.9292 68.8584 59.3382 73.5297 61.346C59.9665 70.8936 62.7332 88.4726 59.8436 96.2172Z" fill="#252036"/>
<path d="M47.0416 81.9573C50.8114 71.2214 55.3599 60.9363 64.6616 56.2239L59.3757 52.495C52.2621 56.2977 44.9928 75.0322 47.0416 81.9573Z" fill="white"/>
<path d="M43.6982 34.6702C75.1274 90.7263 160.933 69.2136 177.692 39.7103C119.382 73.1883 62.5885 50.774 43.6982 34.6702Z" fill="#252036"/>
<path d="M28.1993 55.1683C-1.62604 61.8476 -8.17938 31.119 10.388 35.0466C19.1257 36.895 13.3286 50.3794 28.1993 55.1683Z" fill="#252036"/>
<path d="M28.1996 65.0196C11.3463 59.8143 10.927 75.2867 19.4915 74.8614C26.999 74.4884 22.3061 68.5466 28.1996 65.0196Z" fill="#252036"/>
<path d="M20.6375 66.5236C15.8066 66.2715 16.6962 70.2407 18.6759 69.6013C19.9234 69.1281 19.4815 67.7326 20.6375 66.5236Z" fill="white"/>
<path fill-rule="evenodd" clip-rule="evenodd" d="M69.3965 15.1503V17.9531C69.3965 27.5887 63.9878 32.3156 55.443 32.3156C46.8982 32.3156 41.6714 27.5433 41.6714 18.1804V0H48.6708V17.9986C48.6708 23.18 51.2615 25.8616 55.5339 25.8616C59.8063 25.8616 62.397 23.2709 62.397 18.2258V15.1503H69.3965ZM69.3965 6.39681V0H62.397V6.39681H69.3965Z" fill="#252036"/>
<path d="M89.5031 29.6284V8.58196H85.1987V16.1933C84.1792 14.9536 82.7632 13.8868 80.4694 13.8868C76.8729 13.8868 73.5596 16.7122 73.5596 21.8729V21.9306C73.5596 27.0913 76.9295 29.9167 80.4694 29.9167C82.7066 29.9167 84.1509 28.85 85.1987 27.4085V29.6284H89.5031ZM85.2553 21.9306C85.2553 24.4965 83.5845 26.1976 81.5738 26.1976C79.5632 26.1976 77.8641 24.4965 77.8641 21.9306V21.8729C77.8641 19.2782 79.5632 17.606 81.5738 17.606C83.5845 17.606 85.2553 19.307 85.2553 21.8729V21.9306Z" fill="#252036"/>
<path d="M107.508 22.3342V22.2766C107.508 17.8943 105.186 13.8868 100.117 13.8868C95.6995 13.8868 92.6127 17.5195 92.6127 21.9306V21.9883C92.6127 26.7165 95.9827 29.9744 100.542 29.9744C103.289 29.9744 105.328 28.8788 106.744 27.0913L104.28 24.8713C103.091 25.9957 102.043 26.457 100.599 26.457C98.673 26.457 97.3137 25.4191 96.8889 23.4298H107.452C107.48 23.0262 107.508 22.7667 107.508 22.3342ZM103.317 20.6909H96.8322C97.1721 18.7016 98.3331 17.4042 100.117 17.4042C101.93 17.4042 103.062 18.7304 103.317 20.6909Z" fill="#252036"/>
<path d="M115.219 29.6284V8.58196H110.915V29.6284H115.219Z" fill="#252036"/>
<path d="M123.878 12.4741V8.58196H119.347V12.4741H123.878ZM123.765 29.6284V14.1751H119.46V29.6284H123.765Z" fill="#252036"/>
<path d="M142.307 14.1751H137.832L134.406 24.5254L131.007 14.1751H126.448L132.423 29.7437H136.331L142.307 14.1751Z" fill="#252036"/>
<path d="M158.09 22.3342V22.2766C158.09 17.8943 155.768 13.8868 150.699 13.8868C146.281 13.8868 143.194 17.5195 143.194 21.9306V21.9883C143.194 26.7165 146.564 29.9744 151.123 29.9744C153.87 29.9744 155.909 28.8788 157.325 27.0913L154.862 24.8713C153.672 25.9957 152.624 26.457 151.18 26.457C149.254 26.457 147.895 25.4191 147.47 23.4298H158.033C158.062 23.0262 158.09 22.7667 158.09 22.3342ZM153.899 20.6909H147.414C147.753 18.7016 148.915 17.4042 150.699 17.4042C152.511 17.4042 153.644 18.7304 153.899 20.6909Z" fill="#252036"/>
<path d="M170.445 18.4709V13.8868C167.896 13.7715 166.48 15.1554 165.602 17.2889V14.1751H161.298V29.6284H165.602V23.9199C165.602 20.2296 167.358 18.4709 170.218 18.4709H170.445Z" fill="#252036"/>
<path d="M187.577 14.1751H183.103L179.789 24.6984L176.334 14.1751H171.775L177.722 29.6861C177.354 30.4645 176.957 30.6952 176.221 30.6952C175.655 30.6952 174.947 30.4357 174.38 30.0897L172.936 33.2611C174.041 33.9242 175.202 34.3278 176.759 34.3278C179.336 34.3278 180.582 33.1458 181.743 30.0032L187.577 14.1751Z" fill="#252036"/>
</svg>
