<svg width="189" height="109" viewBox="0 0 189 109" fill="none" xmlns="http://www.w3.org/2000/svg">
<path d="M60.3973 96.5559C47.2027 131.919 -2.50223 82.7468 58.5942 51.8093C60.7249 54.268 69.4121 59.6769 74.0834 61.6847C60.5202 71.2323 63.2869 88.8113 60.3973 96.5559Z" fill="white"/>
<path d="M47.5953 82.296C51.3651 71.5601 55.9136 61.275 65.2153 56.5626L59.9294 52.8338C52.8158 56.6364 45.5465 75.371 47.5953 82.296Z" fill="#252036"/>
<path d="M44.252 35.0089C75.6811 91.0651 161.486 69.5523 178.246 40.049C119.936 73.527 63.1422 51.1128 44.252 35.0089Z" fill="white"/>
<path d="M28.753 55.507C-1.07233 62.1863 -7.62567 31.4577 10.9417 35.3853C19.6794 37.2337 13.8823 50.7182 28.753 55.507Z" fill="white"/>
<path d="M28.7533 65.3583C11.9 60.1531 11.4807 75.6254 20.0452 75.2001C27.5527 74.8271 22.8598 68.8853 28.7533 65.3583Z" fill="white"/>
<path d="M21.1912 66.8623C16.3603 66.6103 17.2499 70.5795 19.2296 69.94C20.4771 69.4668 20.0352 68.0713 21.1912 66.8623Z" fill="#252036"/>
<path fill-rule="evenodd" clip-rule="evenodd" d="M69.9502 15.489V18.2918C69.9502 27.9275 64.5415 32.6543 55.9967 32.6543C47.452 32.6543 42.2251 27.882 42.2251 18.5191V0.338724H49.2245V18.3373C49.2245 23.5187 51.8152 26.2003 56.0876 26.2003C60.36 26.2003 62.9507 23.6096 62.9507 18.5646V15.489H69.9502ZM69.9502 6.73554V0.338724H62.9507V6.73554H69.9502Z" fill="white"/>
<path d="M90.0569 29.9671V8.92068H85.7524V16.532C84.7329 15.2923 83.3169 14.2255 81.0231 14.2255C77.4266 14.2255 74.1133 17.051 74.1133 22.2117V22.2693C74.1133 27.43 77.4832 30.2555 81.0231 30.2555C83.2603 30.2555 84.7046 29.1887 85.7524 27.7472V29.9671H90.0569ZM85.809 22.2693C85.809 24.8353 84.1382 26.5363 82.1276 26.5363C80.1169 26.5363 78.4178 24.8353 78.4178 22.2693V22.2117C78.4178 19.6169 80.1169 17.9447 82.1276 17.9447C84.1382 17.9447 85.809 19.6457 85.809 22.2117V22.2693Z" fill="white"/>
<path d="M108.062 22.673V22.6153C108.062 18.233 105.74 14.2255 100.671 14.2255C96.2532 14.2255 93.1664 17.8582 93.1664 22.2693V22.327C93.1664 27.0552 96.5364 30.3131 101.096 30.3131C103.843 30.3131 105.882 29.2175 107.298 27.43L104.834 25.2101C103.644 26.3345 102.597 26.7958 101.152 26.7958C99.2267 26.7958 97.8674 25.7579 97.4426 23.7685H108.006C108.034 23.3649 108.062 23.1054 108.062 22.673ZM103.871 21.0296H97.3859C97.7258 19.0403 98.8868 17.7429 100.671 17.7429C102.483 17.7429 103.616 19.0691 103.871 21.0296Z" fill="white"/>
<path d="M115.773 29.9671V8.92068H111.468V29.9671H115.773Z" fill="white"/>
<path d="M124.432 12.8128V8.92068H119.901V12.8128H124.432ZM124.318 29.9671V14.5139H120.014V29.9671H124.318Z" fill="white"/>
<path d="M142.86 14.5139H138.386L134.959 24.8641L131.561 14.5139H127.002L132.977 30.0825H136.885L142.86 14.5139Z" fill="white"/>
<path d="M158.644 22.673V22.6153C158.644 18.233 156.321 14.2255 151.252 14.2255C146.835 14.2255 143.748 17.8582 143.748 22.2693V22.327C143.748 27.0552 147.118 30.3131 151.677 30.3131C154.424 30.3131 156.463 29.2175 157.879 27.43L155.415 25.2101C154.226 26.3345 153.178 26.7958 151.734 26.7958C149.808 26.7958 148.449 25.7579 148.024 23.7685H158.587C158.615 23.3649 158.644 23.1054 158.644 22.673ZM154.452 21.0296H147.967C148.307 19.0403 149.468 17.7429 151.252 17.7429C153.065 17.7429 154.198 19.0691 154.452 21.0296Z" fill="white"/>
<path d="M170.999 18.8096V14.2255C168.45 14.1102 167.034 15.4941 166.156 17.6276V14.5139H161.852V29.9671H166.156V24.2587C166.156 20.5683 167.912 18.8096 170.772 18.8096H170.999Z" fill="white"/>
<path d="M188.131 14.5139H183.656L180.343 25.0371L176.888 14.5139H172.329L178.276 30.0248C177.908 30.8032 177.511 31.0339 176.775 31.0339C176.208 31.0339 175.5 30.7744 174.934 30.4284L173.49 33.5998C174.594 34.2629 175.755 34.6666 177.313 34.6666C179.89 34.6666 181.136 33.4845 182.297 30.3419L188.131 14.5139Z" fill="white"/>
</svg>
