<svg width="2154" height="1439" viewBox="0 0 2154 1439" fill="none" xmlns="http://www.w3.org/2000/svg">
<path d="M712.755 1292.03C555.706 1712.94 -35.9115 1127.67 691.294 759.43C716.655 788.694 820.055 853.074 875.656 876.973C714.218 990.614 747.15 1199.85 712.755 1292.03Z" fill="white"/>
<path d="M560.38 1122.3C605.252 994.516 659.39 872.096 770.105 816.007L707.188 771.624C622.519 816.885 535.995 1039.87 560.38 1122.3Z" fill="#F60D2B"/>
<path d="M520.592 559.461C894.68 1226.67 1915.98 970.617 2115.47 619.452C1421.43 1017.93 745.435 751.139 520.592 559.461Z" fill="white"/>
<path d="M336.109 803.442C-18.8892 882.943 -96.8909 517.194 124.109 563.942C228.11 585.942 159.11 746.442 336.109 803.442Z" fill="white"/>
<path d="M336.109 920.698C135.511 858.742 130.521 1042.9 232.46 1037.84C321.82 1033.4 265.962 962.679 336.109 920.698Z" fill="white"/>
<path d="M246.102 938.599C188.602 935.599 199.191 982.843 222.755 975.232C237.602 969.6 232.343 952.989 246.102 938.599Z" fill="#F60D2B"/>
<path d="M1069.18 181.957V113.917C1054.06 109.057 1036.78 105.817 1010.86 105.817C953.085 105.817 921.225 134.977 921.225 198.697V217.057H887.205V284.557H921.225V503.797H1003.3V284.557H1068.64V217.597H1002.22V206.257C1002.22 184.657 1013.02 174.937 1031.92 174.937C1045.96 174.937 1057.3 177.637 1069.18 181.957ZM1407.26 359.617V358.537C1407.26 275.377 1340.84 208.957 1251.2 208.957C1161.02 208.957 1094.06 276.457 1094.06 359.617V360.697C1094.06 443.857 1160.48 510.277 1250.12 510.277C1340.3 510.277 1407.26 442.777 1407.26 359.617ZM1326.26 360.697C1326.26 403.357 1298.18 439.537 1251.2 439.537C1205.84 439.537 1175.06 402.277 1175.06 359.617V358.537C1175.06 315.877 1203.14 279.697 1250.12 279.697C1295.48 279.697 1326.26 316.957 1326.26 359.617V360.697ZM1765.86 359.617V358.537C1765.86 275.377 1699.44 208.957 1609.8 208.957C1519.62 208.957 1452.66 276.457 1452.66 359.617V360.697C1452.66 443.857 1519.08 510.277 1608.72 510.277C1698.9 510.277 1765.86 442.777 1765.86 359.617ZM1684.86 360.697C1684.86 403.357 1656.78 439.537 1609.8 439.537C1564.44 439.537 1533.66 402.277 1533.66 359.617V358.537C1533.66 315.877 1561.74 279.697 1608.72 279.697C1654.08 279.697 1684.86 316.957 1684.86 359.617V360.697ZM2116.35 503.797V109.597H2034.27V252.157C2014.83 228.937 1987.83 208.957 1944.09 208.957C1875.51 208.957 1812.33 261.877 1812.33 358.537V359.617C1812.33 456.277 1876.59 509.197 1944.09 509.197C1986.75 509.197 2014.29 489.217 2034.27 462.217V503.797H2116.35ZM2035.35 359.617C2035.35 407.677 2003.49 439.537 1965.15 439.537C1926.81 439.537 1894.41 407.677 1894.41 359.617V358.537C1894.41 309.937 1926.81 278.617 1965.15 278.617C2003.49 278.617 2035.35 310.477 2035.35 358.537V359.617Z" fill="white"/>
<path fill-rule="evenodd" clip-rule="evenodd" d="M574.102 392.97C562.338 376.676 556.457 358.345 556.457 337.978V124.797H484.465V337.978C484.465 357.893 487.759 376.676 494.346 394.328C501.404 411.98 510.815 428.048 522.578 442.531C534.812 457.015 549.163 469.462 565.632 479.872C582.101 489.83 599.981 496.845 619.273 500.919V428.274C600.922 421.032 585.865 409.264 574.102 392.97ZM831.719 202.661V125.476H759.728V202.661H831.719ZM831.719 292.83H759.728V337.978C759.728 361.061 752.434 381.202 737.848 398.402C723.732 415.601 705.851 426.916 684.207 432.348V503.634C704.91 500.466 724.202 494.129 742.083 484.625C760.433 474.667 776.196 462.446 789.371 447.963C802.546 433.027 812.898 416.28 820.427 397.723C827.955 379.166 831.719 359.251 831.719 337.978V292.83Z" fill="white"/>
</svg>
